<svg width="32.000000" height="32.000000" viewBox="0 0 32 32" fill="none" xmlns="http://www.w3.org/2000/svg" xmlns:xlink="http://www.w3.org/1999/xlink">
	<desc>
			Created with Pixso.
	</desc>
	<defs>
		<clipPath id="clip1_361">
			<rect id="002-product" width="32.000000" height="32.000000" transform="translate(0.000000 -0.750000)" fill="white" fill-opacity="0"/>
		</clipPath>
	</defs>
	<rect id="002-product" width="32.000000" height="32.000000" transform="translate(0.000000 -0.750000)" fill="#FFFFFF" fill-opacity="0"/>
	<g clip-path="url(#clip1_361)">
		<path id="Vector" d="M31.92 21.23C31.7 20.42 31.02 19.82 30.19 19.7L30.19 7.54L31.25 7.54C31.55 7.54 31.78 7.3 31.78 7.01L31.78 1.71C31.78 1.42 31.55 1.18 31.25 1.18L7.94 1.18C7.65 1.18 7.41 1.42 7.41 1.71L7.41 7.01C7.41 7.3 7.65 7.54 7.94 7.54L9 7.54L9 18.13L8.47 18.13C7.16 18.13 5.87 18.51 4.76 19.22L4.76 16.54C4.76 16.25 4.53 16.01 4.23 16.01L0.52 16.01C0.23 16.01 0 16.25 0 16.54L0 28.73C0 29.02 0.23 29.26 0.52 29.26L4.23 29.26C4.53 29.26 4.76 29.02 4.76 28.73L4.76 26.05C5.87 26.77 7.16 27.14 8.47 27.14L17.17 27.14C17.77 27.14 18.37 27.06 18.96 26.9L30.43 23.83C31.56 23.52 32.22 22.36 31.92 21.23ZM8.47 2.24L30.72 2.24L30.72 6.48L8.47 6.48L8.47 2.24ZM10.06 7.54L29.13 7.54L29.13 19.79L22.99 21.44C22.73 20.83 22.22 20.38 21.58 20.21L14.45 18.29C14.04 18.19 13.63 18.13 13.21 18.13L10.06 18.13L10.06 7.54ZM3.7 28.2L1.05 28.2L1.05 17.07L3.7 17.07L3.7 28.2ZM30.15 22.81L18.68 25.88C18.19 26.01 17.68 26.08 17.17 26.08L8.47 26.08C7.21 26.08 5.98 25.67 4.98 24.91L4.76 24.76L4.76 20.52L4.98 20.36C5.98 19.6 7.21 19.19 8.47 19.19L13.21 19.19C13.54 19.19 13.86 19.23 14.17 19.32L21.31 21.23C21.73 21.35 22.04 21.71 22.09 22.14C22.09 22.16 22.1 22.19 22.11 22.21C22.1 22.23 22.1 22.25 22.1 22.28C22.1 22.36 22.08 22.45 22.06 22.53C21.94 22.99 21.52 23.31 21.04 23.31C20.95 23.31 20.85 23.3 20.76 23.28L16.26 22.07C16.07 22.02 15.87 22.07 15.74 22.2C15.6 22.34 15.55 22.54 15.6 22.72C15.65 22.91 15.8 23.05 15.99 23.09L20.49 24.3C20.67 24.35 20.85 24.37 21.04 24.37C21.99 24.37 22.83 23.74 23.08 22.82C23.11 22.71 23.13 22.6 23.14 22.49L29.6 20.76C29.64 20.75 29.69 20.74 29.74 20.73C30.27 20.66 30.76 20.99 30.9 21.51C30.92 21.6 30.94 21.69 30.94 21.78C30.94 22.26 30.61 22.68 30.15 22.81Z" fill="#000000" fill-opacity="1.000000" fill-rule="nonzero"/>
		<path id="Vector" d="M16.95 9.66L22.25 9.66C22.54 9.66 22.78 9.42 22.78 9.13C22.78 8.83 22.54 8.6 22.25 8.6L16.95 8.6C16.66 8.6 16.42 8.83 16.42 9.13C16.42 9.42 16.66 9.66 16.95 9.66Z" fill="#000000" fill-opacity="1.000000" fill-rule="nonzero"/>
	</g>
</svg>
