<svg width="32.000000" height="32.000000" viewBox="0 0 32 32" fill="none" xmlns="http://www.w3.org/2000/svg" xmlns:xlink="http://www.w3.org/1999/xlink">
	<desc>
			Created with Pixso.
	</desc>
	<defs/>
	<path id="Vector" d="M16 13.11C18.05 13.11 19.73 11.44 19.73 9.38C19.73 7.32 18.05 5.65 16 5.65C13.94 5.65 12.26 7.32 12.26 9.38C12.26 11.44 13.94 13.11 16 13.11ZM16 6.71C17.47 6.71 18.66 7.91 18.66 9.38C18.66 10.85 17.47 12.05 16 12.05C14.52 12.05 13.33 10.85 13.33 9.38C13.33 7.91 14.52 6.71 16 6.71Z" fill="#000000" fill-opacity="1.000000" fill-rule="nonzero"/>
	<path id="Vector" d="M15.9 28.45L24.08 16.63C27.15 12.54 26.71 5.82 23.13 2.24C21.2 0.31 18.63 -0.75 15.9 -0.75C13.17 -0.75 10.6 0.31 8.67 2.24C5.09 5.82 4.65 12.54 7.71 16.62L15.9 28.45ZM9.42 2.99C11.15 1.26 13.45 0.31 15.9 0.31C18.35 0.31 20.65 1.26 22.38 2.99C25.61 6.22 26 12.29 23.22 16.01L15.9 26.57L8.57 15.99C5.8 12.29 6.2 6.22 9.42 2.99Z" fill="#000000" fill-opacity="1.000000" fill-rule="nonzero"/>
	<path id="Vector" d="M22.46 22.18C22.16 22.15 21.9 22.36 21.87 22.65C21.83 22.94 22.04 23.21 22.33 23.24C27.94 23.9 30.93 25.68 30.93 26.71C30.93 28.16 25.25 30.18 16 30.18C6.74 30.18 1.06 28.16 1.06 26.71C1.06 25.68 4.05 23.9 9.66 23.24C9.95 23.21 10.16 22.94 10.12 22.65C10.09 22.36 9.83 22.15 9.53 22.18C3.92 22.84 0 24.71 0 26.71C0 28.96 5.49 31.25 16 31.25C26.5 31.25 32 28.96 32 26.71C32 24.71 28.07 22.84 22.46 22.18Z" fill="#000000" fill-opacity="1.000000" fill-rule="nonzero"/>
</svg>
