<svg width="32.000000" height="32.000000" viewBox="0 0 32 32" fill="none" xmlns="http://www.w3.org/2000/svg" xmlns:xlink="http://www.w3.org/1999/xlink">
	<desc>
			Created with Pixso.
	</desc>
	<defs>
		<clipPath id="clip1_345">
			<rect id="003-commerce-and-shopping" width="32.000000" height="32.000000" fill="white" fill-opacity="0"/>
		</clipPath>
	</defs>
	<rect id="003-commerce-and-shopping" width="32.000000" height="32.000000" fill="#FFFFFF" fill-opacity="0"/>
	<g clip-path="url(#clip1_345)">
		<path id="Vector" d="M26.5 11.5L5.5 11.5C4.3 11.5 3.16 11.97 2.31 12.81C1.47 13.66 1 14.8 1 16L1 26.5C1 27.69 1.47 28.83 2.31 29.68C3.16 30.52 4.3 30.99 5.5 31L26.5 31C27.69 30.99 28.83 30.52 29.68 29.68C30.52 28.83 30.99 27.69 31 26.5L31 16C30.99 14.8 30.52 13.66 29.68 12.81C28.83 11.97 27.69 11.5 26.5 11.5ZM30 26.5C29.99 27.42 29.62 28.31 28.97 28.97C28.31 29.62 27.42 29.99 26.5 30L5.5 30C4.57 29.99 3.68 29.62 3.02 28.97C2.37 28.31 2 27.42 2 26.5L2 16C2 15.07 2.37 14.18 3.02 13.52C3.68 12.87 4.57 12.5 5.5 12.5L26.5 12.5C27.42 12.5 28.31 12.87 28.97 13.52C29.62 14.18 29.99 15.07 30 16L30 26.5Z" fill="#000000" fill-opacity="1.000000" fill-rule="nonzero"/>
		<path id="Vector" d="M27 24.5L24 24.5C23.6 24.5 23.22 24.65 22.93 24.93C22.65 25.22 22.5 25.6 22.5 26L22.5 27C22.5 27.39 22.65 27.77 22.93 28.06C23.22 28.34 23.6 28.5 24 28.5L27 28.5C27.39 28.5 27.77 28.34 28.06 28.06C28.34 27.77 28.5 27.39 28.5 27L28.5 26C28.5 25.6 28.34 25.22 28.06 24.93C27.77 24.65 27.39 24.5 27 24.5ZM27.5 27C27.5 27.13 27.44 27.25 27.35 27.35C27.25 27.44 27.13 27.5 27 27.5L24 27.5C23.86 27.5 23.74 27.44 23.64 27.35C23.55 27.25 23.5 27.13 23.5 27L23.5 26C23.5 25.86 23.55 25.74 23.64 25.64C23.74 25.55 23.86 25.5 24 25.5L27 25.5C27.13 25.5 27.25 25.55 27.35 25.64C27.44 25.74 27.5 25.86 27.5 26L27.5 27Z" fill="#000000" fill-opacity="1.000000" fill-rule="nonzero"/>
		<path id="Vector" d="M8.5 23C8.5 22.86 8.44 22.74 8.35 22.64C8.25 22.55 8.13 22.5 8 22.5L4.5 22.5C4.36 22.5 4.24 22.55 4.14 22.64C4.05 22.74 4 22.86 4 23C4 23.13 4.05 23.25 4.14 23.35C4.24 23.44 4.36 23.5 4.5 23.5L8 23.5C8.13 23.5 8.25 23.44 8.35 23.35C8.44 23.25 8.5 23.13 8.5 23Z" fill="#000000" fill-opacity="1.000000" fill-rule="nonzero"/>
		<path id="Vector" d="M14 23C14 22.86 13.94 22.74 13.85 22.64C13.75 22.55 13.63 22.5 13.5 22.5L10 22.5C9.86 22.5 9.74 22.55 9.64 22.64C9.55 22.74 9.5 22.86 9.5 23C9.5 23.13 9.55 23.25 9.64 23.35C9.74 23.44 9.86 23.5 10 23.5L13.5 23.5C13.63 23.5 13.75 23.44 13.85 23.35C13.94 23.25 14 23.13 14 23Z" fill="#000000" fill-opacity="1.000000" fill-rule="nonzero"/>
		<path id="Vector" d="M19 22.5L15.5 22.5C15.36 22.5 15.24 22.55 15.14 22.64C15.05 22.74 15 22.86 15 23C15 23.13 15.05 23.25 15.14 23.35C15.24 23.44 15.36 23.5 15.5 23.5L19 23.5C19.13 23.5 19.25 23.44 19.35 23.35C19.44 23.25 19.5 23.13 19.5 23C19.5 22.86 19.44 22.74 19.35 22.64C19.25 22.55 19.13 22.5 19 22.5Z" fill="#000000" fill-opacity="1.000000" fill-rule="nonzero"/>
		<path id="Vector" d="M25 23C25 22.86 24.94 22.74 24.85 22.64C24.75 22.55 24.63 22.5 24.5 22.5L21 22.5C20.86 22.5 20.74 22.55 20.64 22.64C20.55 22.74 20.5 22.86 20.5 23C20.5 23.13 20.55 23.25 20.64 23.35C20.74 23.44 20.86 23.5 21 23.5L24.5 23.5C24.63 23.5 24.75 23.44 24.85 23.35C24.94 23.25 25 23.13 25 23Z" fill="#000000" fill-opacity="1.000000" fill-rule="nonzero"/>
		<path id="Vector" d="M9.5 27L6 27C5.86 27 5.74 27.05 5.64 27.14C5.55 27.24 5.5 27.36 5.5 27.5C5.5 27.63 5.55 27.75 5.64 27.85C5.74 27.94 5.86 28 6 28L9.5 28C9.63 28 9.75 27.94 9.85 27.85C9.94 27.75 10 27.63 10 27.5C10 27.36 9.94 27.24 9.85 27.14C9.75 27.05 9.63 27 9.5 27Z" fill="#000000" fill-opacity="1.000000" fill-rule="nonzero"/>
		<path id="Vector" d="M16 27L12.5 27C12.36 27 12.24 27.05 12.14 27.14C12.05 27.24 12 27.36 12 27.5C12 27.63 12.05 27.75 12.14 27.85C12.24 27.94 12.36 28 12.5 28L16 28C16.13 28 16.25 27.94 16.35 27.85C16.44 27.75 16.5 27.63 16.5 27.5C16.5 27.36 16.44 27.24 16.35 27.14C16.25 27.05 16.13 27 16 27Z" fill="#000000" fill-opacity="1.000000" fill-rule="nonzero"/>
		<path id="Vector" d="M5 18.5L8 18.5C8.26 18.5 8.51 18.39 8.7 18.2C8.89 18.01 9 17.76 9 17.5L9 15.5C9 15.23 8.89 14.98 8.7 14.79C8.51 14.6 8.26 14.5 8 14.5L5 14.5C4.73 14.5 4.48 14.6 4.29 14.79C4.1 14.98 4 15.23 4 15.5L4 17.5C4 17.76 4.1 18.01 4.29 18.2C4.48 18.39 4.73 18.5 5 18.5ZM7 17.5L7 17L8 17L8 17.5L7 17.5ZM8 16L7 16L7 15.5L8 15.5L8 16ZM5 15.5L6 15.5L6 17.5L5 17.5L5 15.5Z" fill="#000000" fill-opacity="1.000000" fill-rule="nonzero"/>
		<path id="Vector" d="M25.02 15.93C25.16 15.8 25.32 15.68 25.51 15.61C25.69 15.53 25.88 15.5 26.08 15.5C26.28 15.5 26.47 15.53 26.65 15.61C26.84 15.68 27 15.8 27.14 15.93C27.24 16.03 27.36 16.08 27.49 16.07C27.62 16.07 27.75 16.02 27.84 15.93C27.94 15.84 27.99 15.71 27.99 15.58C27.99 15.45 27.94 15.32 27.85 15.23C27.38 14.76 26.74 14.5 26.08 14.5C25.42 14.5 24.78 14.76 24.31 15.23C24.22 15.32 24.17 15.45 24.17 15.58C24.17 15.71 24.23 15.84 24.32 15.93C24.41 16.02 24.54 16.07 24.67 16.07C24.8 16.08 24.93 16.03 25.02 15.93Z" fill="#000000" fill-opacity="1.000000" fill-rule="nonzero"/>
		<path id="Vector" d="M25.02 16.64C24.93 16.74 24.88 16.86 24.88 16.99C24.88 17.12 24.93 17.25 25.03 17.34C25.12 17.44 25.24 17.49 25.38 17.49C25.51 17.49 25.63 17.44 25.73 17.35C25.77 17.3 25.83 17.27 25.89 17.24C25.95 17.21 26.02 17.2 26.08 17.2C26.15 17.2 26.21 17.21 26.27 17.24C26.33 17.27 26.39 17.3 26.43 17.35C26.53 17.44 26.66 17.49 26.79 17.49C26.92 17.49 27.04 17.44 27.14 17.34C27.23 17.25 27.28 17.12 27.28 16.99C27.28 16.86 27.23 16.74 27.14 16.64C27 16.5 26.84 16.39 26.65 16.32C26.47 16.24 26.28 16.2 26.08 16.2C25.88 16.2 25.69 16.24 25.51 16.32C25.32 16.39 25.16 16.5 25.02 16.64Z" fill="#000000" fill-opacity="1.000000" fill-rule="nonzero"/>
		<path id="Vector" d="M11 15L17.5 15C17.63 15 17.75 14.94 17.85 14.85C17.94 14.75 18 14.63 18 14.5C18 14.36 17.94 14.24 17.85 14.14C17.75 14.05 17.63 14 17.5 14L11 14C10.86 14 10.74 14.05 10.64 14.14C10.55 14.24 10.5 14.36 10.5 14.5C10.5 14.63 10.55 14.75 10.64 14.85C10.74 14.94 10.86 15 11 15Z" fill="#000000" fill-opacity="1.000000" fill-rule="nonzero"/>
		<path id="Vector" d="M21.5 14.5C21.5 14.36 21.44 14.24 21.35 14.14C21.25 14.05 21.13 14 21 14L19.5 14C19.36 14 19.24 14.05 19.14 14.14C19.05 14.24 19 14.36 19 14.5C19 14.63 19.05 14.75 19.14 14.85C19.24 14.94 19.36 15 19.5 15L21 15C21.13 15 21.25 14.94 21.35 14.85C21.44 14.75 21.5 14.63 21.5 14.5Z" fill="#000000" fill-opacity="1.000000" fill-rule="nonzero"/>
	</g>
</svg>
