<svg width="16.000000" height="16.000000" viewBox="0 0 16 16" fill="none" xmlns="http://www.w3.org/2000/svg" xmlns:xlink="http://www.w3.org/1999/xlink">
	<desc>
			Created with Pixso.
	</desc>
	<defs/>
	<path id="Vector" d="M4.8 12.8C3.92 12.8 3.2 13.52 3.2 14.4C3.2 15.28 3.92 16 4.8 16C5.68 16 6.4 15.28 6.4 14.4C6.4 13.52 5.68 12.8 4.8 12.8ZM0 0L0 1.59L1.6 1.59L4.48 7.67L3.36 9.59C3.28 9.84 3.2 10.16 3.2 10.4C3.2 11.28 3.92 12 4.8 12L14.4 12L14.4 10.4L5.12 10.4C5.04 10.4 4.96 10.32 4.96 10.24L4.96 10.16L5.68 8.79L11.6 8.79C12.24 8.79 12.72 8.47 12.96 7.99L15.84 2.79C16 2.64 16 2.56 16 2.4C16 1.91 15.68 1.59 15.2 1.59L3.36 1.59L2.64 0L0 0ZM12.8 12.8C11.92 12.8 11.2 13.52 11.2 14.4C11.2 15.28 11.92 16 12.8 16C13.68 16 14.4 15.28 14.4 14.4C14.4 13.52 13.68 12.8 12.8 12.8Z" fill="#FFFFFF" fill-opacity="1.000000" fill-rule="nonzero"/>
</svg>
