<svg width="32.000000" height="32.000000" viewBox="0 0 32 32" fill="none" xmlns="http://www.w3.org/2000/svg" xmlns:xlink="http://www.w3.org/1999/xlink">
	<desc>
			Created with Pixso.
	</desc>
	<defs/>
	<path id="Vector" d="M12.49 8.31L25.06 8.31C25.36 8.31 25.6 8.07 25.6 7.78C25.6 7.48 25.36 7.25 25.06 7.25L12.49 7.25C12.2 7.25 11.96 7.48 11.96 7.78C11.96 8.07 12.2 8.31 12.49 8.31Z" fill="#000000" fill-opacity="1.000000" fill-rule="nonzero"/>
	<path id="Vector" d="M12.49 16.31L25.06 16.31C25.36 16.31 25.6 16.07 25.6 15.78C25.6 15.48 25.36 15.25 25.06 15.25L12.49 15.25C12.2 15.25 11.96 15.48 11.96 15.78C11.96 16.07 12.2 16.31 12.49 16.31Z" fill="#000000" fill-opacity="1.000000" fill-rule="nonzero"/>
	<path id="Vector" d="M12.49 24.31L25.06 24.31C25.36 24.31 25.6 24.07 25.6 23.78C25.6 23.48 25.36 23.25 25.06 23.25L12.49 23.25C12.2 23.25 11.96 23.48 11.96 23.78C11.96 24.07 12.2 24.31 12.49 24.31Z" fill="#000000" fill-opacity="1.000000" fill-rule="nonzero"/>
	<path id="Vector" d="M31.46 -0.75L0.53 -0.75C0.23 -0.75 0 -0.52 0 -0.22L0 30.71C0 31.01 0.23 31.25 0.53 31.25L31.46 31.25C31.76 31.25 32 31.01 32 30.71L32 -0.22C32 -0.52 31.76 -0.75 31.46 -0.75ZM30.93 30.18L1.06 30.18L1.06 0.31L30.93 0.31L30.93 30.18Z" fill="#000000" fill-opacity="1.000000" fill-rule="nonzero"/>
	<path id="Vector" d="M6.66 9.1L7.96 8.42L9.25 9.1L9.01 7.66L10.05 6.63L8.6 6.42L7.96 5.11L7.31 6.42L5.86 6.63L6.91 7.66L6.66 9.1Z" fill="#000000" fill-opacity="1.000000" fill-rule="nonzero"/>
	<path id="Vector" d="M6.66 17.14L7.96 16.46L9.25 17.14L9.01 15.7L10.05 14.68L8.6 14.47L7.96 13.16L7.31 14.47L5.86 14.68L6.91 15.7L6.66 17.14Z" fill="#000000" fill-opacity="1.000000" fill-rule="nonzero"/>
	<path id="Vector" d="M6.66 25.38L7.96 24.7L9.25 25.38L9.01 23.94L10.05 22.91L8.6 22.7L7.96 21.39L7.31 22.7L5.86 22.91L6.91 23.94L6.66 25.38Z" fill="#000000" fill-opacity="1.000000" fill-rule="nonzero"/>
</svg>
