<svg width="32.000000" height="32.000000" viewBox="0 0 32 32" fill="none" xmlns="http://www.w3.org/2000/svg" xmlns:xlink="http://www.w3.org/1999/xlink">
	<desc>
			Created with Pixso.
	</desc>
	<defs/>
	<path id="Vector" d="M16 -0.75C7.17 -0.75 0 6.42 0 15.25C0 24.07 7.17 31.25 16 31.25C24.82 31.25 32 24.07 32 15.25C32 6.42 24.82 -0.75 16 -0.75ZM16 30.18C7.76 30.18 1.06 23.48 1.06 15.25C1.06 7.01 7.76 0.31 16 0.31C24.23 0.31 30.93 7.01 30.93 15.25C30.93 23.48 24.23 30.18 16 30.18Z" fill="#000000" fill-opacity="1.000000" fill-rule="nonzero"/>
	<path id="Vector" d="M16 2.44C15.7 2.44 15.46 2.68 15.46 2.98L15.46 15.25L7.46 15.25C7.17 15.25 6.93 15.48 6.93 15.78C6.93 16.07 7.17 16.31 7.46 16.31L16 16.31C16.29 16.31 16.53 16.07 16.53 15.78L16.53 2.98C16.53 2.68 16.29 2.44 16 2.44Z" fill="#000000" fill-opacity="1.000000" fill-rule="nonzero"/>
</svg>
