<svg width="19.000000" height="19.000000" viewBox="0 0 19 19" fill="none" xmlns="http://www.w3.org/2000/svg" xmlns:xlink="http://www.w3.org/1999/xlink">
	<desc>
			Created with Pixso.
	</desc>
	<defs/>
	<rect id="compare" width="19.000000" height="19.000000" fill="#FFFFFF" fill-opacity="0"/>
	<path id="compare" d="M19 0L14 0L14 19L19 19L19 0ZM15 1L15 18L18 18L18 1L15 1ZM5 4.22217L0 4.22217L0 19L5 19L5 4.22217ZM1 5.22217L1 18L4 18L4 5.22217L1 5.22217ZM7 8.44434L12 8.44434L12 19L7 19L7 8.44434ZM8 18L8 9.44434L11 9.44434L11 18L8 18Z" clip-rule="evenodd" fill="#000000" fill-opacity="1.000000" fill-rule="evenodd"/>
</svg>
