<svg width="15.000000" height="18.000000" viewBox="0 0 15 18" fill="none" xmlns="http://www.w3.org/2000/svg" xmlns:xlink="http://www.w3.org/1999/xlink">
	<desc>
			Created with Pixso.
	</desc>
	<defs/>
	<path id="Vector" d="M12.26 6.62L12.26 4.77C12.26 2.14 9.9 0 7 0C4.09 0 1.73 2.14 1.73 4.77L1.73 6.62C0.61 6.81 -0.25 7.79 -0.25 8.96L-0.25 15.39C-0.25 16.71 0.82 17.77 2.13 17.77L11.86 17.77C13.17 17.77 14.24 16.71 14.24 15.39L14.24 8.96C14.24 7.79 13.38 6.81 12.26 6.62ZM2.39 4.77C2.39 2.5 4.45 0.65 7 0.65C9.54 0.65 11.6 2.5 11.6 4.77L11.6 6.58L2.39 6.58L2.39 4.77ZM13.58 15.39C13.58 16.34 12.81 17.11 11.86 17.11L2.13 17.11C1.18 17.11 0.41 16.34 0.41 15.39L0.41 8.96C0.41 8.01 1.18 7.24 2.13 7.24L11.86 7.24C12.81 7.24 13.58 8.01 13.58 8.96L13.58 15.39Z" fill="#000000" fill-opacity="1.000000" fill-rule="nonzero"/>
	<path id="Vector" d="M7 9.21C6.27 9.21 5.68 9.8 5.68 10.53L5.68 12.51C5.68 13.23 6.27 13.82 7 13.82C7.72 13.82 8.31 13.23 8.31 12.51L8.31 10.53C8.31 9.8 7.72 9.21 7 9.21ZM7.65 12.51C7.65 12.87 7.36 13.16 7 13.16C6.63 13.16 6.34 12.87 6.34 12.51L6.34 10.53C6.34 10.17 6.63 9.87 7 9.87C7.36 9.87 7.65 10.17 7.65 10.53L7.65 12.51Z" fill="#000000" fill-opacity="1.000000" fill-rule="nonzero"/>
</svg>
