<svg width="153.000000" height="26.000000" viewBox="0 0 153 26" fill="none" xmlns="http://www.w3.org/2000/svg" xmlns:xlink="http://www.w3.org/1999/xlink">
	<desc>
			Created with Pixso.
	</desc>
	<defs>
		<linearGradient id="paint_linear_1_450_0" x1="151.000000" y1="25.999935" x2="125.245285" y2="25.999935" gradientUnits="userSpaceOnUse">
			<stop stop-color="#8EE901"/>
			<stop offset="1.000000" stop-color="#4F9C2C"/>
		</linearGradient>
	</defs>
	<path id="24" d="M137.07 21L137.07 17.7L131.4 17.7L134.17 15.13Q135.64 13.79 136.16 12.73Q136.38 12.27 136.5 11.79Q136.67 11.15 136.67 10.47Q136.67 9.54 136.32 8.77Q136.17 8.43 135.95 8.11Q135.85 7.97 135.74 7.84Q135.05 7.02 133.93 6.55Q132.64 6 130.96 6Q128.84 6 127.28 6.82Q126.22 7.38 125.48 8.23Q125.14 8.62 124.87 9.06L127.96 10.79Q128.28 10.28 128.73 9.95Q128.9 9.83 129.08 9.73Q129.27 9.63 129.46 9.56Q129.98 9.36 130.58 9.36Q131.51 9.36 131.99 9.76Q132.14 9.88 132.24 10.04Q132.47 10.38 132.47 10.87Q132.47 10.89 132.47 10.92Q132.46 11.44 132.2 11.96Q131.93 12.49 131.13 13.25L125.63 18.39L125.63 21L137.07 21ZM149.86 18.18L152.05 18.18L152.05 14.88L149.86 14.88L149.86 12.39L145.93 12.39L145.93 14.88L142.95 14.88L148.93 6.3L144.63 6.3L138.04 15.47L138.04 18.18L145.81 18.18L145.81 21L149.86 21L149.86 18.18Z" fill="url(#paint_linear_1_450_0)" fill-opacity="1.000000" fill-rule="evenodd"/>
	<path id="fotoprokat" d="M8.33 10.03L5.62 10.03L5.62 9.78Q5.62 9.04 5.97 8.67Q6.04 8.59 6.12 8.53Q6.45 8.29 6.95 8.29Q7.03 8.29 7.12 8.3Q7.64 8.34 8.14 8.62L9.13 5.81Q8.67 5.52 7.95 5.37Q7.24 5.22 6.49 5.22Q4.45 5.22 3.23 6.22Q3.1 6.33 2.98 6.44Q2.71 6.71 2.5 7.01Q1.74 8.11 1.74 9.74L1.74 10.03L0.08 10.03L0.08 13.02L1.74 13.02L1.74 21L5.73 21L5.73 13.02L8.33 13.02L8.33 10.03ZM88.43 18.2L89.6 17.01L92.79 21L97.62 21L92.5 14.48L97.22 9.61L92.5 9.61L88.43 13.58L88.43 5.41L84.44 5.41L84.44 21L88.43 21L88.43 18.2ZM30.29 21.02Q31.01 20.85 31.52 20.53L30.53 17.74Q30.39 17.83 30.25 17.9Q29.83 18.1 29.31 18.1Q28.91 18.1 28.63 17.92Q28.53 17.85 28.44 17.75Q28.41 17.73 28.39 17.7Q28.11 17.36 28.11 16.8L28.11 13.02L30.72 13.02L30.72 10.03L28.11 10.03L28.11 7.07L24.12 7.07L24.12 10.03L22.46 10.03L22.46 13.02L24.12 13.02L24.12 16.84Q24.12 18.78 25.09 19.86Q25.2 19.98 25.32 20.09Q26.52 21.18 28.74 21.18Q29.56 21.18 30.29 21.02ZM118.45 21.02Q119.17 20.85 119.68 20.53L118.69 17.74Q118.55 17.83 118.41 17.9Q117.99 18.1 117.47 18.1Q117.07 18.1 116.79 17.92Q116.68 17.85 116.59 17.75Q116.57 17.73 116.55 17.7Q116.27 17.36 116.27 16.8L116.27 13.02L118.88 13.02L118.88 10.03L116.27 10.03L116.27 7.07L112.28 7.07L112.28 10.03L110.62 10.03L110.62 13.02L112.28 13.02L112.28 16.84Q112.28 18.78 113.25 19.86Q113.36 19.98 113.48 20.09Q114.68 21.18 116.9 21.18Q117.72 21.18 118.45 21.02ZM12.29 20.53Q13.69 21.18 15.39 21.18Q17.19 21.18 18.63 20.47Q18.67 20.45 18.71 20.43Q19.7 19.92 20.4 19.14Q20.73 18.76 20.99 18.33Q21.19 18.01 21.34 17.67Q21.81 16.58 21.81 15.28Q21.81 13.96 21.32 12.86Q21.18 12.55 20.99 12.25Q20.73 11.82 20.4 11.45Q19.7 10.68 18.71 10.17Q18.69 10.16 18.66 10.15Q17.21 9.42 15.39 9.42Q13.54 9.42 12.08 10.17Q11.16 10.64 10.5 11.34Q10.1 11.76 9.79 12.26Q9.55 12.64 9.39 13.05Q8.96 14.08 8.96 15.28Q8.96 16.57 9.43 17.65Q9.59 18 9.79 18.33Q10.07 18.78 10.42 19.17Q11.11 19.93 12.09 20.43Q12.19 20.48 12.29 20.53ZM35.33 20.53Q36.73 21.18 38.43 21.18Q40.23 21.18 41.67 20.47Q41.71 20.45 41.74 20.43Q42.74 19.92 43.43 19.14Q43.76 18.76 44.03 18.33Q44.22 18.01 44.37 17.67Q44.85 16.58 44.85 15.28Q44.85 13.96 44.35 12.86Q44.21 12.55 44.03 12.25Q43.77 11.82 43.43 11.45Q42.74 10.68 41.74 10.17Q41.72 10.16 41.7 10.15Q40.25 9.42 38.43 9.42Q36.58 9.42 35.12 10.17Q34.2 10.64 33.53 11.34Q33.14 11.76 32.83 12.26Q32.59 12.64 32.42 13.05Q32 14.08 32 15.28Q32 16.57 32.47 17.65Q32.62 18 32.83 18.33Q33.11 18.78 33.46 19.17Q34.15 19.93 35.13 20.43Q35.23 20.48 35.33 20.53ZM55.97 9.81Q54.99 9.42 53.86 9.42Q51.97 9.42 50.88 10.36Q50.68 10.54 50.5 10.75L50.5 9.61L46.7 9.61L46.7 25.07L50.69 25.07L50.69 19.99Q50.95 20.25 51.25 20.46Q52.31 21.18 53.86 21.18Q55.01 21.18 56 20.79Q56.35 20.65 56.68 20.46Q57.14 20.2 57.53 19.86Q58.22 19.26 58.7 18.4Q59.45 17.07 59.45 15.3Q59.45 13.54 58.7 12.21Q58.22 11.35 57.52 10.74Q57.13 10.41 56.68 10.15Q56.34 9.95 55.97 9.81ZM65.45 10.59Q65.26 10.77 65.09 10.98L65.09 9.61L61.29 9.61L61.29 21L65.28 21L65.28 15.77Q65.28 14.36 65.99 13.67Q66 13.66 66.01 13.65Q66.08 13.58 66.17 13.51Q66.87 12.95 68.02 12.95Q68.37 12.95 68.92 13.02L68.92 9.42Q67.66 9.42 66.68 9.81Q65.97 10.1 65.45 10.59ZM73.07 20.53Q74.46 21.18 76.16 21.18Q77.96 21.18 79.41 20.47Q79.44 20.45 79.48 20.43Q80.47 19.92 81.17 19.14Q81.5 18.76 81.77 18.33Q81.96 18.01 82.11 17.67Q82.59 16.58 82.59 15.28Q82.59 13.96 82.09 12.86Q81.95 12.55 81.77 12.25Q81.5 11.82 81.17 11.45Q80.48 10.68 79.48 10.17Q79.46 10.16 79.44 10.15Q77.98 9.42 76.16 9.42Q74.32 9.42 72.86 10.17Q71.94 10.64 71.27 11.34Q70.87 11.76 70.56 12.26Q70.33 12.64 70.16 13.05Q69.74 14.08 69.74 15.28Q69.74 16.57 70.21 17.65Q70.36 18 70.56 18.33Q70.84 18.78 71.19 19.17Q71.89 19.93 72.87 20.43Q72.97 20.48 73.07 20.53ZM107.81 10.72Q106.32 9.42 103.48 9.42Q103.4 9.42 103.33 9.42Q102.04 9.44 100.76 9.77Q99.41 10.12 98.46 10.75L99.81 13.46Q100.4 12.99 101.24 12.73Q102.08 12.47 102.89 12.47Q104.35 12.47 104.93 13.18Q105.27 13.6 105.31 14.27L103.04 14.27Q100.46 14.27 99.22 15.17Q98.69 15.55 98.39 16.06Q97.98 16.75 97.98 17.68Q97.98 18.43 98.26 19.06Q98.35 19.27 98.47 19.47Q98.51 19.54 98.56 19.6Q99.04 20.3 99.93 20.72Q100.9 21.18 102.22 21.18Q104.11 21.18 105.06 20.24Q105.37 19.93 105.59 19.52L105.59 21L109.3 21L109.3 14.67Q109.3 12.3 108.12 11.02Q107.97 10.86 107.81 10.72ZM16.51 17.75Q16.02 18.01 15.39 18.01Q14.76 18.01 14.27 17.75Q13.94 17.58 13.67 17.29Q13.62 17.24 13.59 17.2Q12.99 16.49 12.99 15.28Q12.99 14.12 13.56 13.43Q13.61 13.37 13.67 13.31Q13.93 13.03 14.24 12.86Q14.75 12.6 15.39 12.6Q16.03 12.6 16.53 12.86Q16.85 13.03 17.11 13.31Q17.16 13.37 17.21 13.43Q17.78 14.12 17.78 15.28Q17.78 16.49 17.19 17.2Q17.15 17.24 17.11 17.29Q16.84 17.58 16.51 17.75ZM39.55 17.75Q39.05 18.01 38.43 18.01Q37.8 18.01 37.3 17.75Q36.97 17.58 36.7 17.29Q36.66 17.24 36.62 17.2Q36.03 16.49 36.03 15.28Q36.03 14.12 36.6 13.43Q36.65 13.37 36.7 13.31Q36.96 13.03 37.28 12.86Q37.78 12.6 38.43 12.6Q39.07 12.6 39.57 12.86Q39.89 13.03 40.15 13.31Q40.2 13.37 40.25 13.43Q40.82 14.12 40.82 15.28Q40.82 16.49 40.23 17.2Q40.19 17.24 40.15 17.29Q39.88 17.58 39.55 17.75ZM54.14 17.75Q53.65 18.01 53.02 18.01Q52.39 18.01 51.9 17.75Q51.57 17.58 51.3 17.29Q51.24 17.23 51.19 17.16Q50.63 16.46 50.63 15.3Q50.63 14.15 51.19 13.44Q51.24 13.38 51.3 13.32Q51.57 13.03 51.9 12.86Q52.39 12.6 53.02 12.6Q53.65 12.6 54.14 12.86Q54.47 13.03 54.74 13.32Q54.8 13.38 54.85 13.44Q55.42 14.15 55.42 15.3Q55.42 16.46 54.85 17.16Q54.8 17.23 54.74 17.29Q54.47 17.58 54.14 17.75ZM77.28 17.75Q76.79 18.01 76.16 18.01Q75.53 18.01 75.04 17.75Q74.71 17.58 74.44 17.29Q74.4 17.24 74.36 17.2Q73.77 16.49 73.77 15.28Q73.77 14.12 74.34 13.43Q74.39 13.37 74.44 13.31Q74.7 13.03 75.02 12.86Q75.52 12.6 76.16 12.6Q76.81 12.6 77.31 12.86Q77.62 13.03 77.88 13.31Q77.94 13.37 77.99 13.43Q78.56 14.12 78.56 15.28Q78.56 16.49 77.97 17.2Q77.93 17.24 77.88 17.29Q77.62 17.58 77.28 17.75ZM104.4 18.42Q103.93 18.66 103.33 18.66Q102.64 18.66 102.24 18.35Q102.06 18.2 101.96 18.02Q101.85 17.79 101.85 17.51Q101.85 17.16 102.01 16.91Q102.38 16.36 103.59 16.36L105.31 16.36L105.31 17.34Q105.14 17.82 104.8 18.13Q104.69 18.24 104.55 18.33Q104.48 18.38 104.4 18.42Z" fill="#000000" fill-opacity="1.000000" fill-rule="evenodd"/>
</svg>
