<svg width="20.000000" height="20.000000" viewBox="0 0 20 20" fill="none" xmlns="http://www.w3.org/2000/svg" xmlns:xlink="http://www.w3.org/1999/xlink">
	<desc>
			Created with Pixso.
	</desc>
	<defs/>
	<rect id="search (1)" width="20.000000" height="20.000000" fill="#FFFFFF" fill-opacity="0"/>
	<path id="Vector" d="M19.82 18.98L14.96 14.11C16.26 12.62 17.05 10.66 17.05 8.52C17.05 3.82 13.22 0 8.52 0C3.82 0 0 3.82 0 8.52C0 13.22 3.82 17.05 8.52 17.05C10.66 17.05 12.62 16.26 14.12 14.96L18.98 19.82C19.09 19.93 19.25 20 19.4 20C19.55 20 19.7 19.94 19.82 19.82C20.05 19.59 20.05 19.21 19.82 18.98ZM1.19 8.52C1.19 4.48 4.48 1.19 8.52 1.19C12.56 1.19 15.85 4.48 15.85 8.52C15.85 12.56 12.56 15.86 8.52 15.86C4.48 15.86 1.19 12.57 1.19 8.52Z" fill="#000000" fill-opacity="1.000000" fill-rule="nonzero"/>
</svg>
