<svg width="20.000000" height="20.000000" viewBox="0 0 20 20" fill="none" xmlns="http://www.w3.org/2000/svg" xmlns:xlink="http://www.w3.org/1999/xlink">
	<desc>
			Created with Pixso.
	</desc>
	<defs>
		<clipPath id="clip1_417">
			<rect id="shopping-cart" width="20.000000" height="20.000000" fill="white" fill-opacity="0"/>
		</clipPath>
	</defs>
	<rect id="shopping-cart" width="20.000000" height="20.000000" fill="#FFFFFF" fill-opacity="0"/>
	<g clip-path="url(#clip1_417)">
		<path id="Vector" d="M19.91 3.5C19.83 3.41 19.75 3.33 19.58 3.33L3.75 3.33L3.33 1.16C3.33 1 3.08 0.83 2.91 0.83L0.41 0.83C0.16 0.83 0 1 0 1.25C0 1.5 0.16 1.66 0.41 1.66L2.58 1.66L4.58 11.83C4.83 13.16 6.08 14.16 7.41 14.16L17 14.16C17.25 14.16 17.41 14 17.41 13.75C17.41 13.5 17.25 13.33 17 13.33L7.5 13.33C6.83 13.33 6.16 13 5.83 12.41L18 10.75C18.16 10.75 18.33 10.58 18.33 10.41L20 3.75C20 3.75 20 3.58 19.91 3.5ZM17.58 10L5.41 11.58L3.91 4.08L19 4.08L17.58 10Z" fill="#000000" fill-opacity="1.000000" fill-rule="nonzero"/>
		<path id="Vector" d="M7.08 15C5.91 15 5 15.91 5 17.08C5 18.25 5.91 19.16 7.08 19.16C8.25 19.16 9.16 18.25 9.16 17.08C9.16 15.91 8.25 15 7.08 15ZM7.08 18.33C6.41 18.33 5.83 17.75 5.83 17.08C5.83 16.41 6.41 15.83 7.08 15.83C7.75 15.83 8.33 16.41 8.33 17.08C8.33 17.75 7.75 18.33 7.08 18.33Z" fill="#000000" fill-opacity="1.000000" fill-rule="nonzero"/>
		<path id="Vector" d="M15.41 15C14.24 15 13.33 15.91 13.33 17.08C13.33 18.25 14.24 19.16 15.41 19.16C16.58 19.16 17.49 18.25 17.49 17.08C17.49 15.91 16.58 15 15.41 15ZM15.41 18.33C14.74 18.33 14.16 17.75 14.16 17.08C14.16 16.41 14.74 15.83 15.41 15.83C16.08 15.83 16.66 16.41 16.66 17.08C16.66 17.75 16.08 18.33 15.41 18.33Z" fill="#000000" fill-opacity="1.000000" fill-rule="nonzero"/>
	</g>
</svg>
