<svg width="20.000000" height="20.000000" viewBox="0 0 20 20" fill="none" xmlns="http://www.w3.org/2000/svg" xmlns:xlink="http://www.w3.org/1999/xlink">
	<desc>
			Created with Pixso.
	</desc>
	<defs>
		<clipPath id="clip1_432">
			<rect id="star" width="20.000000" height="20.000000" fill="white" fill-opacity="0"/>
		</clipPath>
	</defs>
	<rect id="star" width="20.000000" height="20.000000" fill="#FFFFFF" fill-opacity="0"/>
	<g clip-path="url(#clip1_432)">
		<path id="Vector" d="M4.04 19.52C3.96 19.52 3.89 19.5 3.83 19.45C3.71 19.37 3.66 19.24 3.68 19.1L4.79 12.65L0.1 8.09C0.01 7.99 -0.03 7.85 0.01 7.72C0.05 7.59 0.17 7.5 0.3 7.48L6.78 6.53L9.67 0.67C9.73 0.54 9.86 0.47 10 0.47C10.13 0.47 10.26 0.54 10.32 0.67L13.21 6.53L19.69 7.48C19.82 7.5 19.94 7.59 19.98 7.72C20.02 7.85 19.99 7.99 19.89 8.09L15.2 12.65L16.31 19.1C16.33 19.24 16.27 19.37 16.16 19.45C16.05 19.54 15.91 19.55 15.79 19.48L10 16.44L4.2 19.48C4.15 19.51 4.09 19.52 4.04 19.52ZM1.12 8.08L5.42 12.27C5.51 12.36 5.55 12.47 5.53 12.59L4.51 18.51L9.83 15.72C9.93 15.66 10.06 15.66 10.16 15.72L15.48 18.51L14.46 12.59C14.44 12.47 14.48 12.36 14.57 12.27L18.87 8.08L12.92 7.22C12.81 7.2 12.71 7.13 12.65 7.02L10 1.63L7.34 7.02C7.28 7.13 7.18 7.2 7.07 7.22L1.12 8.08Z" fill="#000000" fill-opacity="1.000000" fill-rule="nonzero"/>
	</g>
</svg>
