<svg width="20.000000" height="20.000000" viewBox="0 0 20 20" fill="none" xmlns="http://www.w3.org/2000/svg" xmlns:xlink="http://www.w3.org/1999/xlink">
	<desc>
			Created with Pixso.
	</desc>
	<defs>
		<clipPath id="clip1_406">
			<rect id="user (1)" width="20.000000" height="20.000000" fill="white" fill-opacity="0"/>
		</clipPath>
	</defs>
	<rect id="user (1)" width="20.000000" height="20.000000" fill="#FFFFFF" fill-opacity="0"/>
	<g clip-path="url(#clip1_406)">
		<path id="Vector" d="M14.62 12.98C14.6 12.98 12.3 13.05 11.96 10.58C12.34 10.32 12.69 9.97 13 9.55C13.6 8.74 13.99 7.72 14.13 6.62C14.17 6.57 14.21 6.52 14.24 6.46C14.49 5.86 14.61 5.23 14.61 4.57C14.61 2.05 12.71 0 10.37 0C9.76 0 9.17 0.14 8.61 0.41C8.39 0.43 8.18 0.47 7.98 0.53C7.02 0.8 6.24 1.52 5.78 2.53C5.33 3.52 5.25 4.68 5.53 5.8C5.59 6.04 5.67 6.27 5.76 6.5C5.79 6.56 5.82 6.61 5.87 6.65C6.09 8.37 6.91 9.8 8.03 10.58C7.68 13.05 5.38 12.98 5.37 12.98C3.71 13.04 2.38 14.4 2.38 16.07L2.38 19.54C2.38 19.79 2.58 20 2.83 20L6.79 20L13.2 20L17.16 20C17.4 20 17.61 19.79 17.61 19.54L17.61 16.07C17.61 14.4 16.28 13.04 14.62 12.98ZM8.23 1.39C8.4 1.34 8.57 1.32 8.75 1.31C8.81 1.3 8.88 1.29 8.94 1.26C9.39 1.02 9.88 0.9 10.37 0.9C12.21 0.9 13.71 2.54 13.71 4.57C13.71 4.63 13.71 4.69 13.71 4.75C13.35 4.39 12.86 4.16 12.31 4.16L9.24 4.16C9.06 4.16 8.88 4.11 8.74 4C8.61 3.91 8.52 3.78 8.46 3.64C8.37 3.42 8.15 3.28 7.91 3.29C7.67 3.31 7.47 3.47 7.41 3.71C7.23 4.39 6.88 5.02 6.39 5.53C5.94 3.67 6.76 1.82 8.23 1.39ZM7.84 9.18C7.25 8.46 6.87 7.5 6.75 6.44C7.32 5.93 7.77 5.3 8.06 4.6C8.1 4.64 8.15 4.68 8.2 4.72C8.5 4.95 8.86 5.06 9.24 5.06L12.31 5.06C12.74 5.06 13.12 5.32 13.28 5.7C13.28 5.7 13.28 5.7 13.28 5.71C13.28 8.25 11.81 10.32 9.99 10.32C9.2 10.32 8.44 9.91 7.84 9.18ZM8.87 11.02C9.23 11.15 9.61 11.22 9.99 11.22C10.38 11.22 10.75 11.15 11.11 11.02C11.28 11.88 11.76 12.63 12.42 13.15L10.06 16.51C10.04 16.53 10.02 16.55 9.99 16.55C9.97 16.55 9.95 16.53 9.93 16.51L7.57 13.14C8.23 12.63 8.71 11.88 8.87 11.02ZM16.7 19.09L13.2 19.09L6.79 19.09L3.28 19.09L3.28 16.07C3.28 14.86 4.26 13.88 5.47 13.88C5.49 13.88 6.21 13.86 6.79 13.6L9.19 17.03C9.38 17.29 9.68 17.45 9.99 17.45C9.99 17.45 9.99 17.45 9.99 17.45C10.31 17.45 10.61 17.29 10.79 17.03L13.2 13.6C13.85 13.88 14.5 13.88 14.51 13.88C15.72 13.88 16.7 14.86 16.7 16.07L16.7 19.09Z" fill="#000000" fill-opacity="1.000000" fill-rule="nonzero"/>
	</g>
</svg>
